<svg width="26" height="26" viewBox="0 0 26 26" fill="none" xmlns="http://www.w3.org/2000/svg">
<path d="M5.76222 15.7123L4.85719 19.0909L1.54931 19.1609C0.560734 17.3273 0 15.2295 0 13.0001C0 10.8444 0.524272 8.8115 1.45358 7.02148H1.45429L4.39924 7.5614L5.6893 10.4887C5.41929 11.2758 5.27213 12.1209 5.27213 13.0001C5.27223 13.9544 5.44509 14.8688 5.76222 15.7123Z" fill="#FBBB00"/>
<path d="M25.7729 10.5718C25.9222 11.3582 26 12.1703 26 13.0004C26 13.9311 25.9022 14.839 25.7157 15.7147C25.0829 18.6947 23.4293 21.2969 21.1386 23.1384L21.1378 23.1377L17.4285 22.9484L16.9036 19.6712C18.4236 18.7798 19.6114 17.3847 20.2372 15.7147H13.2856V10.5718H20.3386H25.7729Z" fill="#518EF8"/>
<path d="M21.1376 23.1375L21.1384 23.1382C18.9105 24.9289 16.0804 26.0004 12.9997 26.0004C8.04891 26.0004 3.74459 23.2332 1.54883 19.161L5.76174 15.7124C6.8596 18.6424 9.68607 20.7282 12.9997 20.7282C14.424 20.7282 15.7583 20.3432 16.9033 19.671L21.1376 23.1375Z" fill="#28B446"/>
<path d="M21.2982 2.99288L17.0867 6.44077C15.9017 5.70007 14.5009 5.27218 13.0002 5.27218C9.61157 5.27218 6.73224 7.45362 5.68938 10.4887L1.45432 7.02151H1.45361C3.61723 2.85003 7.97584 0 13.0002 0C16.1545 0 19.0467 1.1236 21.2982 2.99288Z" fill="#F14336"/>
</svg>
